<svg width="11" height="14" viewBox="0 0 11 14" fill="none" xmlns="http://www.w3.org/2000/svg">
<path d="M6.31212 13.437L4.74951 13.437L4.74951 11.8744L6.31212 11.8744L6.31212 13.437Z" fill="#BEBEBE"/>
<path d="M3.96837 11.0921L2.40576 11.0921L2.40576 9.5296L3.96837 9.5296L3.96837 11.0921Z" fill="#BEBEBE"/>
<path d="M8.65635 11.0921L7.09375 11.0921L7.09375 9.5296L8.65635 9.5296L8.65635 11.0921Z" fill="#BEBEBE"/>
<path d="M6.31212 8.74908L4.74951 8.74908L4.74951 7.18658L6.31212 7.18658L6.31212 8.74908Z" fill="#BEBEBE"/>
<path d="M6.31212 5.62335L4.74951 5.62335L4.74951 4.06085L6.31212 4.06085L6.31212 5.62335Z" fill="#BEBEBE"/>
<path d="M6.31212 2.49942L4.74951 2.49942L4.74951 0.936918L6.31212 0.936919L6.31212 2.49942Z" fill="#BEBEBE"/>
<path d="M1.6251 8.74908L0.0625 8.74908L0.0625002 7.18658L1.6251 7.18658L1.6251 8.74908Z" fill="#BEBEBE"/>
<path d="M11.0001 8.74908L9.4375 8.74908L9.4375 7.18658L11.0001 7.18658L11.0001 8.74908Z" fill="#BEBEBE"/>
</svg>
