<svg width="14" height="15" viewBox="0 0 14 15" fill="none" xmlns="http://www.w3.org/2000/svg">
<path d="M12 0.5C13.0938 0.5 14 1.40625 14 2.5V12.5C14 13.625 13.0938 14.5 12 14.5H2C0.875 14.5 0 13.625 0 12.5V2.5C0 1.40625 0.875 0.5 2 0.5H12ZM10.5938 6.125C10.9375 5.78125 10.9375 5.25 10.5938 4.90625C10.25 4.5625 9.71875 4.5625 9.375 4.90625L6 8.28125L4.59375 6.90625C4.25 6.5625 3.71875 6.5625 3.375 6.90625C3.03125 7.25 3.03125 7.78125 3.375 8.125L5.375 10.125C5.71875 10.4688 6.25 10.4688 6.59375 10.125L10.5938 6.125Z" fill="#2AC615"/>
</svg>
