<svg width="24" height="24" viewBox="0 0 24 24" fill="none" xmlns="http://www.w3.org/2000/svg">
<path d="M12 8.73466C8.73684 8.73466 6.09167 11.3799 6.09167 14.643V20.9738H17.9083V14.643C17.9083 11.3799 15.2631 8.73466 12 8.73466Z" fill="#6AD75B"/>
<path d="M14.0477 9.0993C13.4097 8.86356 12.72 8.73461 12 8.73461C8.73684 8.73461 6.09167 11.3798 6.09167 14.643V20.9738H10.1871V14.643C10.1871 12.0998 11.7939 9.93208 14.0477 9.0993Z" fill="#2AC615"/>
<path d="M3.93432 14.4806H0.690329C0.309141 14.4806 0 14.1715 0 13.7902C0 13.4089 0.309141 13.0999 0.690329 13.0999H3.93427C4.31551 13.0999 4.6246 13.409 4.6246 13.7902C4.62465 14.1715 4.31551 14.4806 3.93432 14.4806Z" fill="#2AC615"/>
<path d="M23.3097 14.4806H20.0658C19.6845 14.4806 19.3755 14.1715 19.3755 13.7903C19.3755 13.409 19.6845 13.0999 20.0658 13.0999H23.3097C23.691 13.0999 24 13.409 24 13.7903C24 14.1715 23.691 14.4806 23.3097 14.4806Z" fill="#2AC615"/>
<path d="M20.4854 6.28112L18.1916 8.57496C17.9219 8.84458 17.4848 8.84458 17.2154 8.57496C16.9456 8.30538 16.9456 7.86831 17.2154 7.59869L19.5091 5.30486C19.7787 5.03523 20.2158 5.03528 20.4854 5.30486C20.755 5.57448 20.755 6.01154 20.4854 6.28112Z" fill="#2AC615"/>
<path d="M12.6904 2.48049V5.72448C12.6904 6.10576 12.3812 6.41481 12 6.41481C11.6187 6.41476 11.3097 6.10576 11.3097 5.72448V2.48049C11.3097 2.09926 11.6188 1.79025 12 1.79016C12.3812 1.79025 12.6904 2.09926 12.6904 2.48049Z" fill="#2AC615"/>
<path d="M4.49099 5.30486L6.78477 7.59869C7.05435 7.86831 7.05435 8.30542 6.78477 8.57496C6.5151 8.84454 6.07808 8.84458 5.80855 8.57496L3.51472 6.28112C3.24505 6.01159 3.24514 5.57448 3.51472 5.30486C3.78425 5.03532 4.22136 5.03532 4.49099 5.30486Z" fill="#2AC615"/>
<path d="M18.9458 22.2099H5.05422C4.67299 22.2099 4.36389 21.9008 4.36389 21.5196C4.36389 21.1383 4.67303 20.8292 5.05422 20.8292H18.9459C19.3271 20.8292 19.6362 21.1383 19.6362 21.5196C19.6362 21.9008 19.3271 22.2099 18.9458 22.2099Z" fill="#6B807C"/>
<path d="M18.9458 21.5196H5.05418C4.79885 21.5196 4.57643 21.3805 4.45699 21.1744C4.19088 21.6337 4.52332 22.2099 5.05418 22.2099H18.9458C19.4756 22.2099 19.8096 21.6346 19.543 21.1744C19.4236 21.3805 19.2011 21.5196 18.9458 21.5196Z" fill="#C8E9DB"/>
</svg>
